HIERARCHY
ROOT Hips
{
	OFFSET -3.958830 18.904000 13.208200
	CHANNELS 6 Xposition Yposition Zposition Zrotation Yrotation Xrotation 
	JOINT LHipJoint
	{
		OFFSET 0.000000 0.000000 0.000000
		CHANNELS 3 Zrotation Yrotation Xrotation
		JOINT LeftUpLeg
		{
			OFFSET 1.800000 -1.400000 0.085000
			CHANNELS 3 Zrotation Yrotation Xrotation
			JOINT LeftLeg
			{
				OFFSET 2.215000 -6.000000 0.000000
				CHANNELS 3 Zrotation Yrotation Xrotation
				JOINT LeftFoot
				{
					OFFSET 2.500000 -6.900000 0.000000
					CHANNELS 3 Zrotation Yrotation Xrotation
					JOINT LeftToeBase
					{
						OFFSET 0.200000 -0.500000 1.950000
						CHANNELS 3 Zrotation Yrotation Xrotation
						End Site
						{
							OFFSET 0.000000 0.000000 0.000000
						}
					}
				}
			}
		}
	}
	JOINT RHipJoint
	{
		OFFSET 0.000000 0.000000 0.000000
		CHANNELS 3 Zrotation Yrotation Xrotation
		JOINT RightUpLeg
		{
			OFFSET -1.800000 -1.400000 0.085000
			CHANNELS 3 Zrotation Yrotation Xrotation
			JOINT RightLeg
			{
				OFFSET -2.215000 -6.000000 0.000000
				CHANNELS 3 Zrotation Yrotation Xrotation
				JOINT RightFoot
				{
					OFFSET -2.500000 -6.900000 0.000000
					CHANNELS 3 Zrotation Yrotation Xrotation
					JOINT RightToeBase
					{
						OFFSET -0.200000 -0.500000 1.950000
						CHANNELS 3 Zrotation Yrotation Xrotation
						End Site
						{
							OFFSET 0.000000 0.000000 0.000000
						}
					}
				}
			}
		}
	}
	JOINT LowerBack
	{
		OFFSET 0.000000 0.000000 0.000000
		CHANNELS 3 Zrotation Yrotation Xrotation
		JOINT Spine
		{
			OFFSET -0.087000 1.940000 -0.288900
			CHANNELS 3 Zrotation Yrotation Xrotation
			JOINT Spine1
			{
				OFFSET 0.000000 1.950000 0.060000
				CHANNELS 3 Zrotation Yrotation Xrotation
				JOINT Neck
				{
					OFFSET 0.000000 0.000000 0.000000
					CHANNELS 3 Zrotation Yrotation Xrotation
					JOINT Neck1
					{
						OFFSET 0.000000 1.600000 0.340000
						CHANNELS 3 Zrotation Yrotation Xrotation
						JOINT Head
						{
							OFFSET 0.000000 1.667000 -0.240000
							CHANNELS 3 Zrotation Yrotation Xrotation
							End Site
							{
								OFFSET 0.000000 0.000000 0.000000
							}
						}
					}
				}
				JOINT LeftShoulder
				{
					OFFSET 0.000000 0.000000 0.000000
					CHANNELS 3 Zrotation Yrotation Xrotation
					JOINT LeftArm
					{
						OFFSET 2.700000 1.550000 -0.730000
						CHANNELS 3 Zrotation Yrotation Xrotation
						JOINT LeftForeArm
						{
							OFFSET 5.450000 0.000000 0.000000
							CHANNELS 3 Zrotation Yrotation Xrotation
							JOINT LeftHand
							{
								OFFSET 3.450000 0.000000 0.000000
								CHANNELS 3 Zrotation Yrotation Xrotation
								JOINT LeftHandIndex1
								{
									OFFSET 0.750000 0.000000 0.000000
									CHANNELS 3 Zrotation Yrotation Xrotation
									End Site
									{
										OFFSET 0.000000 0.000000 0.000000
									}
								}
							}
						}
					}
				}
				JOINT RightShoulder
				{
					OFFSET 0.000000 0.000000 0.000000
					CHANNELS 3 Zrotation Yrotation Xrotation
					JOINT RightArm
					{
						OFFSET -2.700000 1.550000 -0.730000
						CHANNELS 3 Zrotation Yrotation Xrotation
						JOINT RightForeArm
						{
							OFFSET -5.450000 0.000000 0.000000
							CHANNELS 3 Zrotation Yrotation Xrotation
							JOINT RightHand
							{
								OFFSET -3.450000 0.000000 0.000000
								CHANNELS 3 Zrotation Yrotation Xrotation
								JOINT RightHandIndex1
								{
									OFFSET -0.750000 0.000000 0.000000
									CHANNELS 3 Zrotation Yrotation Xrotation
									End Site
									{
										OFFSET 0.000000 0.000000 0.000000
									}
								}
							}
						}
					}
				}
			}
		}
	}
}
MOTION
Frames: 13
Frame Time: 0.016667
0.188130 16.560830 -4.057060 -1.994808 18.757848 -2.082839 -15.333221 14.162976 2.877069 12.437802 0.271754 7.455094 -3.808335 6.559404 10.029257 0.419552 5.407390 2.873997 0.036450 -0.060160 -0.012680 17.964686 -10.085909 3.410423 -11.168149 1.934197 -32.066503 9.675389 -4.048559 10.584121 0.206456 -2.195221 3.524276 -0.005350 0.150240 0.066140 -3.366848 -3.414339 -8.320501 6.582474 -7.014889 9.880621 -2.676927 -6.383218 7.796246 1.480142 -1.076880 -18.494396 -5.247516 -0.446756 31.944087 0.279750 -2.369800 -1.685680 -6.329352 -41.332640 5.780119 5.587091 -27.907307 -3.409563 10.892178 -35.604454 -1.027485 -3.676557 3.473037 0.052500 0.081410 -0.084250 0.074060 2.831868 41.244297 8.408230 -6.713555 27.027227 -4.658786 -13.993644 38.304083 -1.650236 2.254362 -1.478774 -0.060200 0.055470 0.026000 -0.007540 
0.181100 16.559880 -3.995480 -2.095692 18.794592 -2.127810 -15.337539 14.185258 2.825559 12.615731 0.204061 7.244541 -3.615901 6.654661 10.992249 0.398680 5.435346 2.855145 0.053020 -0.041680 0.007910 17.960671 -10.113851 3.388152 -11.017979 1.959039 -31.868482 9.822084 -4.194882 11.156290 0.190988 -2.239180 3.502867 0.008530 0.138750 0.069170 -3.352532 -3.396616 -8.244600 6.511928 -7.041113 9.773727 -2.633774 -6.451482 7.599276 1.529023 -0.873009 -18.014911 -4.695271 -0.464839 31.421392 0.166900 -2.053950 -2.575360 -6.212730 -40.552386 5.912445 6.320273 -27.659687 -3.491170 11.671120 -38.982735 -1.342677 -3.674193 3.474094 0.063690 0.077910 -0.073150 0.070900 2.615393 40.309030 8.269059 -6.681904 26.524904 -4.996998 -15.087106 41.221943 -2.182884 2.211390 -1.480103 -0.061300 0.059260 0.020230 -0.017400 
0.164150 16.553820 -3.884680 -2.088169 18.404636 -1.984071 -15.346178 14.234565 2.695291 12.522087 0.153095 6.542256 -2.898172 6.776874 13.417657 0.349420 5.459325 2.828386 0.084320 -0.005420 0.039240 17.953422 -10.171099 3.384398 -10.533516 2.128828 -31.731439 9.779134 -4.282324 11.750019 0.173824 -2.256933 3.489253 0.037620 0.122740 0.074440 -3.315095 -3.338433 -8.093649 6.221489 -6.788261 9.676445 -2.295547 -6.272760 6.953849 1.560286 -0.902519 -17.053303 -4.277526 -0.685000 29.928113 -0.152920 -1.786080 -4.340890 -6.162667 -38.810400 5.997310 7.806819 -27.150956 -3.536021 13.354726 -46.114800 -2.191384 -3.666351 3.460748 0.078070 0.073340 -0.058400 0.068810 2.639285 38.732152 8.001567 -7.235056 25.492759 -5.704795 -17.357475 46.803922 -3.483351 2.147634 -1.479110 -0.062930 0.068480 0.010720 -0.030780 
0.144520 16.548970 -3.734610 -1.980362 17.998914 -1.895222 -15.351188 14.264397 2.565650 12.650766 0.081305 5.865446 -2.435053 7.036633 16.197561 0.314842 5.568872 2.766985 0.126420 0.045710 0.074730 17.950477 -10.246434 3.347699 -10.030002 2.179403 -30.891410 9.672996 -4.240190 11.547237 0.150219 -2.245328 3.487728 0.074080 0.099880 0.080140 -3.287180 -3.240688 -7.922809 5.946162 -6.413593 9.410778 -2.093096 -5.950349 6.283222 1.624722 -1.040990 -15.798120 -4.085976 -1.029583 28.718341 -0.397120 -1.747050 -6.423890 -6.051490 -36.291666 5.913215 9.037870 -26.417294 -3.329022 16.800365 -55.541569 -4.427890 -3.638429 3.398785 0.096370 0.061970 -0.035710 0.069030 2.575402 36.498397 7.554062 -7.966467 23.900232 -6.352369 -20.643234 55.566016 -6.020418 2.068220 -1.452639 -0.059530 0.080270 -0.002870 -0.042220 
0.133960 16.553910 -3.573850 -1.845929 17.223488 -1.836242 -15.353177 14.314101 2.444221 12.580076 -0.030074 4.730577 -2.056884 7.454662 20.015828 0.290005 5.767643 2.661840 0.171870 0.097770 0.124060 17.941721 -10.338539 3.317119 -9.548857 2.214106 -30.033822 9.542135 -4.256690 11.595346 0.114910 -2.236904 3.480776 0.106180 0.061920 0.085680 -3.250604 -3.154463 -7.785618 5.586461 -5.994663 9.498203 -1.697313 -5.590079 5.268060 1.713420 -0.940917 -14.563800 -3.623361 -1.190630 28.219148 -0.654120 -1.365840 -8.820630 -5.928894 -33.663492 5.559472 10.194087 -25.481493 -2.831050 20.736124 -66.459827 -8.209759 -3.580836 3.310124 0.133450 0.039140 0.002630 0.063440 2.427674 33.970404 6.923900 -8.212077 22.348871 -6.480329 -23.835859 65.623194 -9.718942 1.996869 -1.382085 -0.056400 0.091580 -0.019010 -0.062390 
0.114240 16.571860 -3.428250 -1.603258 16.570911 -2.163039 -15.359613 14.398463 2.332262 12.128574 -0.268007 2.909311 -1.106822 7.816379 25.124067 0.269198 6.089415 2.506374 0.213950 0.149720 0.166630 17.924512 -10.448628 3.260400 -9.065965 2.201955 -29.083902 9.059172 -4.300000 12.158372 0.083869 -2.241883 3.468515 0.145000 0.037060 0.088630 -3.203106 -3.126023 -7.648712 4.936698 -5.523933 10.198309 -1.123430 -5.172858 4.611161 1.668124 -0.993009 -13.259493 -3.538286 -1.167140 28.029324 -0.901770 -0.978050 -11.232680 -5.766051 -31.104251 4.839897 11.009268 -24.726751 -2.557704 30.037149 -75.595942 -16.797849 -3.521032 3.116801 0.169980 0.022950 0.035310 0.057820 2.549907 31.579641 6.305978 -8.240251 20.739310 -6.515058 -29.288390 75.206164 -16.188756 1.916205 -1.239781 -0.061620 0.117810 -0.025760 -0.081110 
0.086530 16.586760 -3.286610 -1.245075 15.688446 -2.754842 -15.369313 14.409799 2.265654 11.633023 -0.624007 0.829386 -0.410698 8.420966 31.061337 0.294197 6.669403 2.258218 0.270200 0.222580 0.208830 17.921354 -10.534871 3.169912 -8.758236 2.161646 -28.105217 8.712223 -4.437604 13.112168 0.049902 -2.314028 3.427600 0.204450 0.020210 0.092340 -3.155994 -3.053155 -7.495854 4.196357 -4.779990 11.146629 -0.696093 -4.444274 4.231277 1.539663 -1.016980 -11.459197 -3.422202 -1.363208 27.869051 -1.063790 -0.917290 -13.533510 -5.618526 -28.549607 3.405298 11.065277 -24.520350 -3.033287 55.697672 -83.462341 -39.830769 -3.272587 2.233997 0.193270 0.015850 0.059270 0.057400 2.868597 29.181468 5.502042 -7.873634 18.608543 -6.986141 -45.156650 84.570332 -32.554056 1.702383 -0.675519 -0.065530 0.148500 -0.034470 -0.095140 
0.043680 16.603450 -3.151870 -0.911439 14.789504 -3.918133 -15.383317 14.384066 2.305625 11.384373 -1.190886 -1.445681 0.044164 9.375751 37.852627 0.406573 7.552310 1.908461 0.331260 0.303730 0.246600 17.907658 -10.616439 3.056042 -8.450880 2.104715 -26.879676 8.473235 -4.730380 14.813157 0.004410 -2.469327 3.354264 0.266290 0.006140 0.098090 -3.086864 -2.976963 -7.454516 2.980215 -3.851759 12.410912 -0.212913 -3.542519 5.812010 1.583204 -0.809191 -10.752918 -3.141172 -1.419008 28.656605 -0.812910 -0.855620 -14.942430 -5.084315 -23.407298 4.606917 12.786828 -26.791750 3.097921 100.436714 -77.000757 -80.037322 -3.186530 -0.297238 0.206780 0.010320 0.083090 0.063600 2.539294 24.276543 4.074621 -7.448249 20.768505 -4.332712 -86.909478 86.121212 -70.145398 0.669391 4.754320 -0.061310 0.172580 -0.048500 -0.101120 
0.001380 16.610920 -3.027770 -0.691567 13.915481 -5.218019 -15.400456 14.281385 2.420303 11.032068 -1.934714 -4.016762 0.585738 10.414548 44.947186 0.564522 8.598511 1.507810 0.402480 0.404620 0.293680 17.908082 -10.645023 2.938797 -8.263376 2.110020 -25.968923 8.363200 -5.167170 17.121196 -0.052351 -2.704144 3.244101 0.341090 -0.012520 0.108780 -3.032156 -2.896232 -7.470368 2.152971 -3.009460 14.161947 0.104708 -2.649221 8.381754 1.276169 0.095972 -10.895918 -1.620248 -1.624451 29.209930 -0.699690 -0.407900 -16.647960 -4.379265 -21.295882 2.985659 12.137897 -24.697133 2.035613 141.120795 -72.505116 -127.893741 -3.734267 3.249059 0.216610 0.010530 0.112020 0.067280 2.224610 21.439334 6.804738 -6.380933 16.714009 -0.848530 -144.046127 75.743674 -138.384532 2.194224 -1.772871 -0.053300 0.193480 -0.066340 -0.110070 
-0.041940 16.611660 -2.907420 -0.534336 12.751247 -6.458130 -15.422807 14.107935 2.578804 10.851493 -2.677918 -6.298644 0.523867 11.729089 51.045819 0.741204 9.646712 1.131037 0.469820 0.495860 0.336940 17.921138 -10.628503 2.811187 -8.151852 2.130711 -25.258138 8.345562 -5.649731 19.488010 -0.117755 -2.977413 3.121486 0.411080 -0.025860 0.119580 -2.973299 -2.787830 -7.471215 1.463318 -2.275119 15.928485 0.382698 -1.814447 9.466361 1.286769 0.566684 -9.670357 -0.784644 -1.792050 29.784501 -0.721410 -0.149770 -18.331760 -4.028942 -18.530677 2.200536 9.231115 -23.195547 2.290193 160.409765 -66.691710 -149.405233 -3.667423 3.397954 0.230450 0.009560 0.139330 0.074960 1.934305 18.651889 5.913359 -2.388670 14.681238 -1.420621 -167.287394 71.307025 -165.454064 2.018582 -1.905021 -0.049370 0.219270 -0.082480 -0.117330 
-0.074200 16.606470 -2.795750 -0.472722 11.061974 -7.413204 -15.456999 13.931214 2.801092 10.695533 -3.453133 -8.768601 -0.066483 13.291007 56.183696 0.919305 10.620312 0.790914 0.513670 0.554240 0.373650 17.925476 -10.533999 2.715601 -7.873897 2.325345 -25.130074 8.177873 -6.102849 22.084233 -0.184005 -3.232098 3.005157 0.454640 -0.047840 0.125010 -2.875496 -2.808261 -7.538728 0.872656 -1.600143 17.757359 1.158458 -1.087617 10.659597 1.251266 0.659668 -9.181203 -0.663422 -1.683175 30.525642 -0.819130 0.197810 -20.021880 -3.257805 -15.498839 1.976086 4.130885 -21.255201 3.318556 172.839945 -62.419441 -167.914646 -3.588105 3.437032 0.262030 -0.005590 0.173050 0.072110 1.274725 15.937064 5.579603 2.476895 13.016009 -1.291671 -179.752680 66.501653 175.889826 1.912399 -1.868170 -0.051250 0.242360 -0.089070 -0.129530 
-0.088820 16.592470 -2.689600 -0.580130 9.354706 -8.049238 -15.492941 13.759417 3.065576 10.521328 -4.247258 -11.654056 -0.712028 14.836157 60.647996 1.097285 11.466976 0.493583 0.559140 0.610610 0.411100 17.928797 -10.381273 2.662969 -7.494361 2.725159 -25.748946 7.679594 -6.572891 25.431765 -0.272226 -3.526522 2.871789 0.478480 -0.099130 0.130800 -2.780661 -2.925108 -7.674770 0.772752 -1.130252 19.726183 2.246464 -0.535536 11.496627 1.137663 0.185706 -9.213286 -1.590297 -1.266467 31.518772 -0.828880 0.362860 -22.102200 -2.284868 -12.792842 2.336510 -2.502288 -18.792413 4.420734 -172.309844 -60.062144 165.156579 -3.475150 3.456158 0.312730 -0.050080 0.228280 0.067830 0.509649 13.999568 5.418645 7.539984 12.141356 -1.515613 173.559196 62.865612 162.603686 1.860149 -1.819516 -0.036910 0.247410 -0.103860 -0.139940 
-0.104510 16.566770 -2.572610 -0.643948 7.189074 -8.650098 -15.510640 13.594995 3.342931 10.594851 -4.840418 -14.311806 -1.749843 16.578751 63.999530 1.281628 12.182286 0.252279 0.579390 0.629930 0.434620 17.943686 -10.227145 2.644527 -6.840772 3.286715 -26.553441 6.472510 -6.846584 29.224329 -0.369571 -3.834976 2.746466 0.463590 -0.160440 0.126220 -2.730005 -3.040763 -7.863232 1.086789 -0.840759 21.892140 2.850558 -0.122778 11.951749 1.000773 -0.843834 -9.730361 -3.680991 -0.474715 33.471398 -0.521490 0.362760 -23.769200 -1.992599 -10.612129 3.370499 -9.120056 -15.306902 5.013890 -159.416818 -56.679762 138.199102 -3.412437 3.474047 0.377920 -0.116960 0.288950 0.059210 0.433120 12.960116 5.435912 12.775105 11.390819 -2.053812 165.395981 59.699175 145.005633 1.886177 -1.720455 -0.019910 0.244400 -0.115160 -0.147210 
